# xmcd
#
# Track frame offsets:
#	150
#	22230
#	47613
#	65071
#	85171
#	100671
#	117209
#	134196
#	154813
#	170873
#	185123
#	204185
#	221480
# Disc length: 3180 seconds
# Revision: 10
# Processed by: cddbd v1.5.1PL0 Copyright (c) Steve Scherf et al.
#
# Submitted via: libkcddb 0.10
#
DISCID=c30c6a0d
DTITLE=los - Pe Werner
DYEAR=1900
DGENRE=Unknown
TTITLE0=los
TTITLE1=los
TTITLE2=los
TTITLE3=los
TTITLE4=los
TTITLE5=los
TTITLE6=los
TTITLE7=los
TTITLE8=los
TTITLE9=los
TTITLE10=los
TTITLE11=los
TTITLE12=los
EXTD=
EXTT0=
EXTT1=
EXTT2=
EXTT3=
EXTT4=
EXTT5=
EXTT6=
EXTT7=
EXTT8=
EXTT9=
EXTT10=
EXTT11=
EXTT12=
PLAYORDER=
